<?xml version="1.0" encoding="utf-8"?>
<!-- Generator: Adobe Illustrator 12.0.1, SVG Export Plug-In . SVG Version: 6.00 Build 51448)  -->
<!DOCTYPE svg PUBLIC "-//W3C//DTD SVG 1.1//EN" "http://www.w3.org/Graphics/SVG/1.1/DTD/svg11.dtd" [
	<!ENTITY ns_svg "http://www.w3.org/2000/svg">
	<!ENTITY ns_xlink "http://www.w3.org/1999/xlink">
]>
<svg  version="1.1" id="Layer_1" xmlns="&ns_svg;" xmlns:xlink="&ns_xlink;" width="24" height="10" viewBox="0 0 24 10"
	 overflow="visible" enable-background="new 0 0 24 10" xml:space="preserve">
<rect x="0.013" y="0.021" fill="#A4A4A4" width="23.971" height="9.992"/>
<g>
	<rect x="7.007" y="2.001" fill="#4E4E4E" width="1" height="6"/>
	<rect x="8.007" y="2.001" fill="#C0C1C3" width="1" height="6"/>
	<rect x="11.007" y="2.001" fill="#4E4E4E" width="1" height="6"/>
	<rect x="12.007" y="2.001" fill="#C0C1C3" width="1" height="6"/>
	<rect x="15.007" y="2.001" fill="#4E4E4E" width="1" height="6"/>
	<rect x="16.007" y="2.001" fill="#C0C1C3" width="1" height="6"/>
</g>
<polygon fill="#A4A4A4" points="0,0 24,0 24,0 "/>
<polygon fill="#C6C7C8" points="23.998,10 22.999,10 22.999,1 0.999,1 0.999,0 23.998,0 "/>
<polygon fill="#4C4C4C" points="22.999,10 -0.002,10 -0.002,0 0.999,0 0.999,9 22.999,9 "/>
<polygon fill="#737373" points="18.999,1.999 18.999,7.999 21.999,4.999 "/>
<polygon fill="#4C4C4C" points="21.646,4.642 19.009,7.25 18.999,7.994 21.999,4.994 "/>
<g>
	<polygon fill="#4C4C4C" points="18.999,7.999 18.999,2.688 19.498,3.173 19.498,7.482 	"/>
</g>
<polygon fill="#C6C7C8" points="21.646,5.354 18.994,2.702 18.999,1.999 21.999,4.999 "/>
<polygon fill="#737373" points="4.995,7.999 4.995,1.999 1.995,4.999 "/>
<polygon fill="#4C4C4C" points="2.348,5.359 4.985,2.75 4.995,2.006 1.995,5.006 "/>
<polygon fill="#4C4C4C" points="2.348,4.646 5,7.298 4.995,7.999 1.995,4.999 "/>
<g>
	<polygon fill="#C6C7C8" points="4.995,1.999 4.995,7.984 4.493,7.5 4.493,2.515 	"/>
</g>
</svg>
