<?xml version="1.0" encoding="utf-8"?>
<!-- Generator: Adobe Illustrator 12.0.1, SVG Export Plug-In . SVG Version: 6.00 Build 51448)  -->
<!DOCTYPE svg PUBLIC "-//W3C//DTD SVG 1.1//EN" "http://www.w3.org/Graphics/SVG/1.1/DTD/svg11.dtd" [
	<!ENTITY ns_svg "http://www.w3.org/2000/svg">
	<!ENTITY ns_xlink "http://www.w3.org/1999/xlink">
]>
<svg  version="1.1" id="Layer_1" xmlns="&ns_svg;" xmlns:xlink="&ns_xlink;" width="34" height="32" viewBox="0 0 34 32"
	 overflow="visible" enable-background="new 0 0 34 32" xml:space="preserve">
<rect fill="none" width="34" height="32"/>
<path fill="#B2B2B2" d="M16.95,15.844l10.746-8.15c0.011-0.008,0.022-0.011,0.033-0.019c-0.045-0.008-0.086-0.026-0.132-0.026H6.145
	c-0.006,0-0.011,0.003-0.017,0.003C6.153,7.668,6.18,7.675,6.205,7.694L16.95,15.844z M17.569,17.275
	c-0.195,0.147-0.418,0.216-0.617,0.211c-0.201,0.006-0.425-0.062-0.622-0.21L5.33,8.933v14.542c0,0.449,0.364,0.814,0.815,0.814
	h21.452c0.449,0,0.813-0.365,0.813-0.814V9.053L17.569,17.275z"/>
</svg>
