<?xml version="1.0" encoding="utf-8"?>
<!-- Generator: Adobe Illustrator 12.0.1, SVG Export Plug-In . SVG Version: 6.00 Build 51448)  -->
<!DOCTYPE svg PUBLIC "-//W3C//DTD SVG 1.1//EN" "http://www.w3.org/Graphics/SVG/1.1/DTD/svg11.dtd" [
	<!ENTITY ns_svg "http://www.w3.org/2000/svg">
	<!ENTITY ns_xlink "http://www.w3.org/1999/xlink">
]>
<svg  version="1.1" id="Layer_1" xmlns="&ns_svg;" xmlns:xlink="&ns_xlink;" width="34" height="32" viewBox="0 0 34 32"
	 overflow="visible" enable-background="new 0 0 34 32" xml:space="preserve">
<rect fill="none" width="34" height="32"/>
<path fill="#FFFFFF" d="M23.826,3.413h-0.769c-0.553,0-1,0.445-1,0.995v1.563H10.503c-0.607,0-1.099,0.474-1.099,1.06v20.312
	c0,0.585,0.492,1.061,1.099,1.061h13.225c0.606,0,1.099-0.476,1.099-1.061V4.408C24.826,3.857,24.378,3.413,23.826,3.413z
	 M14.328,25.528h-2.175v-2.175h2.175V25.528z M14.328,21.546h-2.175V19.37h2.175V21.546z M18.282,25.528h-2.174v-2.175h2.174V25.528
	z M18.282,21.546h-2.174V19.37h2.174V21.546z M22.237,25.528h-2.175v-2.175h2.175V25.528z M22.237,21.546h-2.175V19.37h2.175V21.546
	z M22.685,16.117c0,0.664-0.459,1.202-1.024,1.202h-9.089c-0.566,0-1.024-0.539-1.024-1.202V9.663c0-0.664,0.458-1.202,1.024-1.202
	h9.089c0.565,0,1.024,0.538,1.024,1.202V16.117z"/>
</svg>
