<?xml version="1.0" encoding="UTF-8"?>
<!DOCTYPE svg PUBLIC "-//W3C//DTD SVG 1.1 Tiny//EN" "http://www.w3.org/Graphics/SVG/1.1/DTD/svg11-tiny.dtd">
<svg baseProfile="tiny" height="16" version="1.1" viewBox="0 0 16 16" width="16" xmlns="http://www.w3.org/2000/svg" xmlns:xlink="http://www.w3.org/1999/xlink">
<g>
<path d="M4.294,11.713l2.382-2.768C4.824,7.953,2.766,10.275,4.294,11.713z" fill="none"/>
<path d="M9.096,9.403L9.02,8.867V8.288l0.436-0.135c0,0,4.189-3.794,3.458-5.114L9.13,6.84l1.164-5.245   C8.79,1.697,8.071,7.311,8.071,7.311l0.075,0.435L7.463,8.178L6.922,8.496C4.425,7.07,2.863,9.768,3.011,10.564   c0.154,0.828,0.419,1.7,1.392,2.277l3.646-4.25l0.243-0.077l0.044,0.276l-0.201,5.502c1.108,0.311,1.944-0.055,2.556-0.633   C11.229,13.145,11.898,10.055,9.096,9.403z M4.294,11.713c-1.528-1.438,0.53-3.76,2.382-2.768L4.294,11.713z M8.762,8.188   c-0.229,0-0.415-0.186-0.415-0.414c0-0.228,0.186-0.413,0.415-0.413c0.228,0,0.412,0.186,0.412,0.413   C9.174,8.003,8.989,8.188,8.762,8.188z M8.967,13.631L9.1,9.98C11.111,10.705,10.677,13.844,8.967,13.631z" fill="#364B60"/>
<rect fill="none" height="16" width="16"/>
</g>
</svg>
