<?xml version="1.0" encoding="UTF-8" standalone="no"?>
<!-- Created with Inkscape (http://www.inkscape.org/) -->
<svg
   xmlns:a="http://ns.adobe.com/AdobeSVGViewerExtensions/3.0/"
   xmlns:dc="http://purl.org/dc/elements/1.1/"
   xmlns:cc="http://web.resource.org/cc/"
   xmlns:rdf="http://www.w3.org/1999/02/22-rdf-syntax-ns#"
   xmlns:svg="http://www.w3.org/2000/svg"
   xmlns="http://www.w3.org/2000/svg"
   xmlns:xlink="http://www.w3.org/1999/xlink"
   xmlns:sodipodi="http://inkscape.sourceforge.net/DTD/sodipodi-0.dtd"
   xmlns:inkscape="http://www.inkscape.org/namespaces/inkscape"
   version="1.0"
   width="189"
   height="10"
   viewBox="0 0 10 189"
   id="svg1479"
   xml:space="preserve"
   sodipodi:version="0.32"
   inkscape:version="0.43"
   sodipodi:docname="qgn_graf_ied_hslider_v1.svg"
   sodipodi:docbase="X:\Video_Editor_Gundam\Implementation\VideoEditorUiComponents\data\svg"><metadata
   id="metadata1701"><rdf:RDF><cc:Work
       rdf:about=""><dc:format>image/svg+xml</dc:format><dc:type
         rdf:resource="http://purl.org/dc/dcmitype/StillImage" /></cc:Work></rdf:RDF></metadata><sodipodi:namedview
   inkscape:window-height="968"
   inkscape:window-width="1280"
   inkscape:pageshadow="2"
   inkscape:pageopacity="0.0"
   borderopacity="1.0"
   bordercolor="#666666"
   pagecolor="#ffffff"
   id="base"
   inkscape:zoom="6.2910053"
   inkscape:cx="94.5"
   inkscape:cy="5"
   inkscape:window-x="-4"
   inkscape:window-y="-4"
   inkscape:current-layer="svg1479" /><defs
   id="defs1520">
			
		
				<radialGradient
   cx="0.1025"
   cy="3.1621001"
   r="179.82249"
   fx="0.1025"
   fy="3.1621001"
   id="XMLID_2_"
   gradientUnits="userSpaceOnUse"
   gradientTransform="matrix(18.9,0,0,18.9,-2.131628e-14,-1781.05)">
					<stop
   style="stop-color:#fa0404;stop-opacity:1"
   offset="0.0056"
   id="stop1487" />
					<stop
   style="stop-color:#fbf814;stop-opacity:1"
   offset="0.53369999"
   id="stop1489" />
					<stop
   style="stop-color:#01fe01;stop-opacity:1"
   offset="1"
   id="stop1491" />
					<a:midPointStop
   style="stop-color:#FA0404"
   offset="0.0056" />
					<a:midPointStop
   style="stop-color:#FA0404"
   offset="0.5" />
					<a:midPointStop
   style="stop-color:#FBF814"
   offset="0.5337" />
					<a:midPointStop
   style="stop-color:#FBF814"
   offset="0.5" />
					<a:midPointStop
   style="stop-color:#01FE01"
   offset="1" />
				</radialGradient>
				 
				
				
				
				 
				 
				 
				 
				 
				 
				 
				 
				 
			<radialGradient
   inkscape:collect="always"
   xlink:href="#XMLID_2_"
   id="radialGradient2013"
   gradientUnits="userSpaceOnUse"
   gradientTransform="matrix(18.9,0,0,18.9,-4.263256e-14,-1809.95)"
   cx="0.1025"
   cy="3.1621001"
   fx="0.1025"
   fy="3.1621001"
   r="179.82249" /></defs>
	
		<g
   id="g2015"><rect
     transform="matrix(0,1,-1,0,0,0)"
     id="rect1493"
     style="fill:url(#radialGradient2013)"
     y="-1791.0499"
     x="-4.2632564e-014"
     height="3553.2"
     width="189" /><polygon
     transform="matrix(0,18.9,18.9,0,-1781.05,-2.131628e-14)"
     id="polygon1495"
     points="10,0 10,1 1,1 1,189 0,189 0,0 10,0 " /><polygon
     transform="matrix(0,18.9,18.9,0,-1781.05,-2.131628e-14)"
     id="polygon1497"
     style="fill:#808080"
     points="10,1 1,1 1,188 2,188 2,2 10,2 10,1 " /><polygon
     transform="matrix(0,18.9,18.9,0,-1781.05,-2.131628e-14)"
     id="polygon1499"
     style="fill:#c7c7c7"
     points="1,189 10,189 10,2 9,2 9,188 1,188 1,189 " /><rect
     transform="matrix(0,1,1,0,0,0)"
     id="rect1501"
     style="fill:#e5e5e5"
     y="-1384.15"
     x="56.700001"
     height="37.799999"
     width="94.5" /><rect
     transform="matrix(0,1,1,0,0,0)"
     id="rect1503"
     style="fill:#e5e5e5"
     y="-1043.95"
     x="56.700001"
     height="37.799999"
     width="94.5" /><rect
     transform="matrix(0,1,1,0,0,0)"
     id="rect1505"
     style="fill:#e5e5e5"
     y="-23.35"
     x="56.700001"
     height="37.799999"
     width="94.5" /><rect
     transform="matrix(0,1,1,0,0,0)"
     id="rect1507"
     style="fill:#e5e5e5"
     y="-363.54999"
     x="56.700001"
     height="37.799999"
     width="94.5" /><rect
     transform="matrix(0,1,1,0,0,0)"
     id="rect1509"
     style="fill:#e5e5e5"
     y="-703.75"
     x="56.700001"
     height="37.799999"
     width="94.5" /><rect
     transform="matrix(0,1,1,0,0,0)"
     id="rect1511"
     style="fill:#e5e5e5"
     y="316.85001"
     x="56.700001"
     height="37.799999"
     width="94.5" /><rect
     transform="matrix(0,1,1,0,0,0)"
     id="rect1513"
     style="fill:#e5e5e5"
     y="1337.45"
     x="56.700001"
     height="37.799999"
     width="94.5" /><rect
     transform="matrix(0,1,1,0,0,0)"
     id="rect1515"
     style="fill:#e5e5e5"
     y="997.25"
     x="56.700001"
     height="37.799999"
     width="94.5" /><rect
     transform="matrix(0,1,1,0,0,0)"
     id="rect1517"
     style="fill:#e5e5e5"
     y="657.04999"
     x="56.700001"
     height="37.799999"
     width="94.5" /></g>
	</svg>