<?xml version="1.0" encoding="utf-8"?>
<!-- Generator: Adobe Illustrator 12.0.1, SVG Export Plug-In . SVG Version: 6.00 Build 51448)  -->
<!DOCTYPE svg PUBLIC "-//W3C//DTD SVG 1.1//EN" "http://www.w3.org/Graphics/SVG/1.1/DTD/svg11.dtd" [
	<!ENTITY ns_svg "http://www.w3.org/2000/svg">
	<!ENTITY ns_xlink "http://www.w3.org/1999/xlink">
]>
<svg  version="1.1" id="Layer_1" xmlns="&ns_svg;" xmlns:xlink="&ns_xlink;" width="23.999" height="24" viewBox="0 0 23.999 24"
	 overflow="visible" enable-background="new 0 0 23.999 24" xml:space="preserve">
<rect x="0" fill="none" width="23.999" height="24"/>
<path fill="#FFFFFF" stroke="#FFFFFF" stroke-width="2.5" stroke-linecap="round" stroke-linejoin="round" d="M17.419,2.976v6.307
	H7.528V2.976H4.543v17.716h2.985v-0.727h9.892v0.727h2.977V2.976H17.419z M7.528,17.588v-6.235h9.892v6.235H7.528z"/>
<path d="M17.419,2.976v6.307H7.528V2.976H4.543v17.716h2.985v-0.727h9.892v0.727h2.977V2.976H17.419z M7.528,17.588v-6.235h9.892
	v6.235H7.528z"/>
<rect x="5.376" y="4.523" fill="#FFFFFF" width="1.339" height="1.502"/>
<rect x="5.376" y="7.71" fill="#FFFFFF" width="1.339" height="1.502"/>
<rect x="5.376" y="10.899" fill="#FFFFFF" width="1.339" height="1.499"/>
<rect x="5.376" y="14.083" fill="#FFFFFF" width="1.339" height="1.505"/>
<rect x="5.376" y="17.271" fill="#FFFFFF" width="1.339" height="1.502"/>
<rect x="18.282" y="4.523" fill="#FFFFFF" width="1.345" height="1.502"/>
<rect x="18.282" y="7.71" fill="#FFFFFF" width="1.345" height="1.502"/>
<rect x="18.282" y="10.899" fill="#FFFFFF" width="1.345" height="1.499"/>
<rect x="18.282" y="14.083" fill="#FFFFFF" width="1.345" height="1.505"/>
<rect x="18.282" y="17.271" fill="#FFFFFF" width="1.345" height="1.502"/>
</svg>
