<?xml version="1.0" encoding="utf-8"?>
<!-- Generator: Adobe Illustrator 12.0.1, SVG Export Plug-In . SVG Version: 6.00 Build 51448)  -->
<!DOCTYPE svg PUBLIC "-//W3C//DTD SVG 1.1//EN" "http://www.w3.org/Graphics/SVG/1.1/DTD/svg11.dtd" [
	<!ENTITY ns_svg "http://www.w3.org/2000/svg">
	<!ENTITY ns_xlink "http://www.w3.org/1999/xlink">
]>
<svg  version="1.1" id="Layer_1" xmlns="&ns_svg;" xmlns:xlink="&ns_xlink;" width="27.999" height="28" viewBox="0 0 27.999 28"
	 overflow="visible" enable-background="new 0 0 27.999 28" xml:space="preserve">
<rect x="0" fill="none" width="27.999" height="28"/>
<path fill="#FFFFFF" stroke="#FFFFFF" stroke-width="1.9263" d="M25.441,7.446c-0.481,0-0.87,0.416-0.87,0.929
	c0,0.083,0.024,0.156,0.043,0.232l-1.483,2.217c-0.366-0.188-0.772-0.302-1.205-0.302c-0.386,0-0.754,0.083-1.089,0.233
	l-1.439-2.152c0.018-0.075,0.043-0.148,0.043-0.229c0-0.513-0.39-0.929-0.869-0.929c-0.481,0-0.87,0.416-0.87,0.929
	c0,0.514,0.389,0.929,0.87,0.929c0.152,0,0.288-0.053,0.412-0.127l1.056,2.139c-0.556,0.546-0.909,1.321-0.909,2.19
	c0,0.468,0.11,0.905,0.29,1.298c-1.494-0.477-5.134-1.447-6.041,0.129c0,0,0.048,0.571-2.866,1.128
	c-1.886,0.36-1.775,0.868-2.961,1.236c-1.056,0.327-2.309,0.451-3.354,0.411c-0.923-0.035-1.595-0.411-1.595-0.411
	s0.822,1.838,1.705,2.757c0.883,0.922,1.736,1.347,3.521,1.468c1.466,0.098,2.474-0.469,5.004-0.527
	c2.404-0.058,4.288,0.881,6.379-0.47c1.938-1.253,2.698-3.327,3.433-4.129c0.009-0.01,0.016-0.02,0.024-0.028
	c1.182-0.35,2.053-1.492,2.053-2.862c0-0.813-0.306-1.548-0.799-2.086l1.104-2.243c0.125,0.074,0.261,0.126,0.414,0.126
	c0.479,0,0.868-0.416,0.868-0.929C26.309,7.862,25.92,7.446,25.441,7.446z"/>
<path d="M25.441,7.446c-0.481,0-0.87,0.416-0.87,0.929c0,0.083,0.024,0.156,0.043,0.232l-1.483,2.217
	c-0.366-0.188-0.772-0.302-1.205-0.302c-0.386,0-0.754,0.083-1.089,0.233l-1.439-2.152c0.018-0.075,0.043-0.148,0.043-0.229
	c0-0.513-0.39-0.929-0.869-0.929c-0.481,0-0.87,0.416-0.87,0.929c0,0.514,0.389,0.929,0.87,0.929c0.152,0,0.288-0.053,0.412-0.127
	l1.056,2.139c-0.556,0.546-0.909,1.321-0.909,2.19c0,0.468,0.11,0.905,0.29,1.298c-1.494-0.477-5.134-1.447-6.041,0.129
	c0,0,0.048,0.571-2.866,1.128c-1.886,0.36-1.775,0.868-2.961,1.236c-1.056,0.327-2.309,0.451-3.354,0.411
	c-0.923-0.035-1.595-0.411-1.595-0.411s0.822,1.838,1.705,2.757c0.883,0.922,1.736,1.347,3.521,1.468
	c1.466,0.098,2.474-0.469,5.004-0.527c2.404-0.058,4.288,0.881,6.379-0.47c1.938-1.253,2.698-3.327,3.433-4.129
	c0.009-0.01,0.016-0.02,0.024-0.028c1.182-0.35,2.053-1.492,2.053-2.862c0-0.813-0.306-1.548-0.799-2.086l1.104-2.243
	c0.125,0.074,0.261,0.126,0.414,0.126c0.479,0,0.868-0.416,0.868-0.929C26.309,7.862,25.92,7.446,25.441,7.446z"/>
<path stroke="#FFFFFF" stroke-width="1.3673" stroke-linecap="round" d="M9.064,14.172c0,0,0.109-0.924,1.049-0.804
	c0.94,0.118,1.326,0.981,1.03,1.855c-0.295,0.874-1.908,1.576-2.96,0.323c-1.047-1.251-0.032-3.69,1.692-3.962
	c1.645-0.262,4.354,1.304,3.079,4.761c-1.272,3.437-6.619,2.989-8.05-1.012C3.287,10.804,9.022,4.111,15.409,8.16
	c2.151,1.361,3.704,4.399,3.418,7.09c0,0-2.588,2.671-5.529-0.062"/>
<g>
	<path stroke="#FFFFFF" stroke-width="0.6381" stroke-linecap="round" d="M9.064,14.172c0,0,0.109-0.924,1.049-0.804
		c0.94,0.118,1.326,0.981,1.03,1.855c-0.295,0.874-1.908,1.576-2.96,0.323c-1.047-1.251-0.032-3.69,1.692-3.962
		c1.645-0.262,4.354,1.304,3.079,4.761c-1.272,3.437-6.619,2.989-8.05-1.012C3.287,10.804,9.022,4.111,15.409,8.16
		c2.151,1.361,3.704,4.399,3.418,7.09c0,0-2.588,2.671-5.529-0.062"/>
	<path fill="#FFFFFF" d="M18.081,11.816c0,0-1.388,1.815-3.576,0.875c-1.278-0.549-1.806,0.522-1.806,0.522l-0.312-0.773
		c0,0,1.079-0.61,2.578-0.755c1.503-0.149,2.238-0.384,2.395-1.102C17.513,9.867,18.754,11.488,18.081,11.816z"/>
	<path fill="#FFFFFF" d="M14.095,7.419c0,0-0.741,2.503-2.012,2.82c-1.27,0.32-0.849,1.612-0.849,1.612l-0.425-0.254
		c0,0-0.019-1.353,0.89-2.297c0.91-0.943,1.244-1.686,0.861-2.209C12.175,6.568,14.325,6.838,14.095,7.419z"/>
	<path fill="#FFFFFF" d="M7.772,8.163c0.382,0.706,0.523,0.996,1.317,3.229c0.213,0.601-0.23,0.63-0.23,0.63
		S7.594,9.568,6.879,9.303C6.163,9.035,7.772,8.163,7.772,8.163z"/>
	<path fill="#FFFFFF" d="M4.823,12.114c0,0,0.877,0.322,1.458,0.497c0.58,0.179,1.446,1.083,1.446,1.083s-2.319-0.707-2.946-0.253
		C4.152,13.89,4.823,12.114,4.823,12.114z"/>
</g>
</svg>
