<?xml version="1.0" encoding="utf-8"?>
<!-- Generator: Adobe Illustrator 12.0.1, SVG Export Plug-In . SVG Version: 6.00 Build 51448)  -->
<!DOCTYPE svg PUBLIC "-//W3C//DTD SVG 1.1//EN" "http://www.w3.org/Graphics/SVG/1.1/DTD/svg11.dtd" [
	<!ENTITY ns_svg "http://www.w3.org/2000/svg">
	<!ENTITY ns_xlink "http://www.w3.org/1999/xlink">
]>
<svg  version="1.1" id="Layer_1" xmlns="&ns_svg;" xmlns:xlink="&ns_xlink;" width="28" height="28" viewBox="0 0 28 28"
	 overflow="visible" enable-background="new 0 0 28 28" xml:space="preserve">
<rect fill="none" width="28" height="28"/>
<path fill="#FFFFFF" stroke="#FFFFFF" stroke-width="0.917" d="M14.004,2.613c-6.282,0-11.392,5.105-11.392,11.382
	c0,6.281,5.11,11.39,11.392,11.39c6.275,0,11.381-5.109,11.381-11.39C25.385,7.719,20.279,2.613,14.004,2.613L14.004,2.613z
	 M3.147,13.996c0-5.993,4.862-10.848,10.857-10.848c5.99,0,10.847,4.855,10.847,10.848l0,0l0,0c0,5.994-4.856,10.854-10.847,10.854
	C8.009,24.85,3.147,19.989,3.147,13.996L3.147,13.996L3.147,13.996z M14.004,5.393c-1.979,0-3.792,0.672-5.246,1.792l0.378,0.378
	l0,0L9.14,7.565l0,0l11.293,11.29l0,0l0.004,0.004l0,0l0.379,0.378c0.108-0.142,0.213-0.286,0.312-0.434l0,0
	c0.002-0.002,0.003-0.004,0.005-0.007l0,0c0.929-1.372,1.475-3.022,1.475-4.801C22.607,9.241,18.756,5.393,14.004,5.393
	L14.004,5.393z M9.583,7.252c1.319-0.869,2.836-1.326,4.42-1.326c4.448,0,8.069,3.62,8.069,8.069c0,1.583-0.457,3.099-1.326,4.416
	L9.583,7.252L9.583,7.252z M7.364,8.519c-1.231,1.488-1.967,3.395-1.967,5.477c0,4.748,3.857,8.6,8.607,8.6
	c1.884,0,3.629-0.605,5.048-1.635l0,0c0.001-0.001,0.002-0.002,0.003-0.003l0,0c0.145-0.104,0.286-0.214,0.423-0.327L7.364,8.519
	L7.364,8.519z M14.004,22.062c-4.451,0-8.073-3.62-8.073-8.066c0-1.676,0.525-3.312,1.485-4.667l11.252,11.249
	C17.312,21.537,15.677,22.062,14.004,22.062L14.004,22.062z"/>
<path fill="#FFFFFF" d="M22.391,14.012c0,4.626-3.768,8.382-8.414,8.382c-4.647,0-8.417-3.756-8.417-8.382
	c0-4.63,3.769-8.381,8.417-8.381C18.623,5.63,22.391,9.382,22.391,14.012z"/>
<g>
	<polygon stroke="#000000" stroke-width="1.0254" stroke-linejoin="round" points="14.129,19.639 14.129,8.358 8.711,12.742 
		6.997,12.742 6.997,14.957 8.711,14.957 	"/>
	<path fill="none" stroke="#000000" stroke-width="1.1396" stroke-linecap="round" stroke-linejoin="round" d="M16.752,10.916
		c1.084,0.598,1.82,1.754,1.82,3.079c0,1.333-0.744,2.492-1.837,3.087"/>
	<path fill="none" stroke="#000000" stroke-width="1.1396" stroke-linecap="round" stroke-linejoin="round" d="M17.84,8.647
		C19.724,9.686,21,11.691,21,13.993c0,1.887-0.861,3.574-2.209,4.692"/>
</g>
<path stroke="#FFFFFF" stroke-width="0.917" d="M2.881,13.996c0,6.133,4.99,11.122,11.124,11.122
	c6.127,0,11.113-4.988,11.113-11.122c0-6.129-4.986-11.116-11.113-11.116C7.87,2.88,2.881,7.867,2.881,13.996z M5.664,13.996
	c0-1.835,0.626-3.614,1.737-5.062c0.428,0.428,11.233,11.23,11.662,11.658c-1.449,1.11-3.227,1.736-5.058,1.736
	C9.406,22.328,5.664,18.59,5.664,13.996z M14.005,5.659c4.596,0,8.336,3.739,8.336,8.336c0,1.741-0.576,3.382-1.588,4.801
	C20.28,18.324,9.672,7.718,9.199,7.246C10.621,6.234,12.263,5.659,14.005,5.659z"/>
</svg>
