<?xml version="1.0" encoding="utf-8"?>
<!-- Generator: Adobe Illustrator 12.0.1, SVG Export Plug-In . SVG Version: 6.00 Build 51448)  -->
<!DOCTYPE svg PUBLIC "-//W3C//DTD SVG 1.1//EN" "http://www.w3.org/Graphics/SVG/1.1/DTD/svg11.dtd" [
	<!ENTITY ns_svg "http://www.w3.org/2000/svg">
	<!ENTITY ns_xlink "http://www.w3.org/1999/xlink">
]>
<svg  version="1.1" id="Layer_1" xmlns="&ns_svg;" xmlns:xlink="&ns_xlink;" width="24" height="24" viewBox="0 0 24 24"
	 overflow="visible" enable-background="new 0 0 24 24" xml:space="preserve">
<rect fill="none" width="24" height="24"/>
<path fill="#FFFFFF" stroke="#FFFFFF" stroke-width="2.5" d="M18.878,15.053L18.872,3.348H6.923L6.911,15.849
	c-0.694-0.137-1.536-0.045-2.361,0.312c-1.631,0.703-2.567,2.167-2.09,3.27c0.477,1.1,2.183,1.423,3.813,0.72
	c1.474-0.637,2.37-1.893,2.179-2.94V8.241h8.886v5.514c-0.691-0.133-1.528-0.038-2.345,0.316c-1.631,0.703-2.565,2.166-2.091,3.269
	c0.477,1.1,2.183,1.423,3.813,0.72C18.222,17.409,19.119,16.114,18.878,15.053z M8.452,7.031V5.509h8.886v1.522H8.452z"/>
<path d="M18.878,15.053L18.872,3.348H6.923L6.911,15.849c-0.694-0.137-1.536-0.045-2.361,0.312c-1.631,0.703-2.567,2.167-2.09,3.27
	c0.477,1.1,2.183,1.423,3.813,0.72c1.474-0.637,2.37-1.893,2.179-2.94V8.241h8.886v5.514c-0.691-0.133-1.528-0.038-2.345,0.316
	c-1.631,0.703-2.565,2.166-2.091,3.269c0.477,1.1,2.183,1.423,3.813,0.72C18.222,17.409,19.119,16.114,18.878,15.053z M8.452,7.031
	V5.509h8.886v1.522H8.452z"/>
</svg>
